<mxfile host="drawio-plugin" modified="2022-06-08T15:02:16.460Z" agent="5.0 (Windows NT 6.2; Win64; x64) AppleWebKit/537.36 (KHTML, like Gecko) Chrome/89.0.4389.114 Safari/537.36" etag="I2Ue7NGMlUhNhXyglZiz" version="15.5.4" type="embed"><diagram id="KJNINzmWkbKi1h1qGcNC" name="Page-1"><mxGraphModel dx="1379" dy="1968" grid="1" gridSize="10" guides="1" tooltips="1" connect="1" arrows="1" fold="1" page="1" pageScale="1" pageWidth="850" pageHeight="1100" math="0" shadow="0"><root><mxCell id="0"/><mxCell id="1" parent="0"/><mxCell id="124" style="edgeStyle=orthogonalEdgeStyle;rounded=0;orthogonalLoop=1;jettySize=auto;html=1;dashed=1;" edge="1" parent="1" source="126"><mxGeometry relative="1" as="geometry"><mxPoint x="-1200" y="1047.999999999999" as="targetPoint"/><Array as="points"><mxPoint x="600" y="1240"/><mxPoint x="-1200" y="1240"/></Array></mxGeometry></mxCell><mxCell id="158" style="edgeStyle=orthogonalEdgeStyle;rounded=0;orthogonalLoop=1;jettySize=auto;html=1;dashed=1;" edge="1" parent="1" source="159"><mxGeometry relative="1" as="geometry"><mxPoint x="-1280" y="1047.999999999999" as="targetPoint"/><Array as="points"><mxPoint x="1640" y="1280"/><mxPoint x="-1280" y="1280"/></Array></mxGeometry></mxCell><mxCell id="194" value="AccountController" style="rounded=0;whiteSpace=wrap;html=1;" vertex="1" parent="1"><mxGeometry x="965" width="160" height="80" as="geometry"/></mxCell><mxCell id="202" style="edgeStyle=orthogonalEdgeStyle;rounded=0;orthogonalLoop=1;jettySize=auto;html=1;entryX=0.25;entryY=1;entryDx=0;entryDy=0;endArrow=none;endFill=0;" edge="1" parent="1" source="195" target="194"><mxGeometry relative="1" as="geometry"/></mxCell><mxCell id="204" value="1:1&lt;br&gt;Has a" style="edgeLabel;html=1;align=center;verticalAlign=middle;resizable=0;points=[];" vertex="1" connectable="0" parent="202"><mxGeometry x="-0.0953" y="2" relative="1" as="geometry"><mxPoint as="offset"/></mxGeometry></mxCell><mxCell id="207" style="edgeStyle=orthogonalEdgeStyle;rounded=0;orthogonalLoop=1;jettySize=auto;html=1;entryX=0.25;entryY=0;entryDx=0;entryDy=0;endArrow=none;endFill=0;" edge="1" parent="1" source="195" target="205"><mxGeometry relative="1" as="geometry"><Array as="points"><mxPoint x="925" y="280"/><mxPoint x="1135" y="280"/><mxPoint x="1135" y="440"/></Array></mxGeometry></mxCell><mxCell id="210" value="1:1&lt;br&gt;Has a" style="edgeLabel;html=1;align=center;verticalAlign=middle;resizable=0;points=[];" vertex="1" connectable="0" parent="207"><mxGeometry x="-0.3366" y="3" relative="1" as="geometry"><mxPoint as="offset"/></mxGeometry></mxCell><mxCell id="208" style="edgeStyle=orthogonalEdgeStyle;rounded=0;orthogonalLoop=1;jettySize=auto;html=1;exitX=0.25;exitY=1;exitDx=0;exitDy=0;entryX=0.25;entryY=0;entryDx=0;entryDy=0;endArrow=none;endFill=0;" edge="1" parent="1" source="195" target="197"><mxGeometry relative="1" as="geometry"/></mxCell><mxCell id="213" value="1:1&lt;br&gt;Has a" style="edgeLabel;html=1;align=center;verticalAlign=middle;resizable=0;points=[];" vertex="1" connectable="0" parent="208"><mxGeometry x="-0.1443" relative="1" as="geometry"><mxPoint as="offset"/></mxGeometry></mxCell><mxCell id="195" value="LoginService" style="rounded=0;whiteSpace=wrap;html=1;" vertex="1" parent="1"><mxGeometry x="845" y="160" width="160" height="80" as="geometry"/></mxCell><mxCell id="201" style="edgeStyle=orthogonalEdgeStyle;rounded=0;orthogonalLoop=1;jettySize=auto;html=1;endArrow=none;endFill=0;entryX=0.75;entryY=1;entryDx=0;entryDy=0;" edge="1" parent="1" source="196" target="194"><mxGeometry relative="1" as="geometry"/></mxCell><mxCell id="203" value="1:1&lt;br&gt;Has a" style="edgeLabel;html=1;align=center;verticalAlign=middle;resizable=0;points=[];" vertex="1" connectable="0" parent="201"><mxGeometry x="0.2065" relative="1" as="geometry"><mxPoint as="offset"/></mxGeometry></mxCell><mxCell id="206" style="edgeStyle=orthogonalEdgeStyle;rounded=0;orthogonalLoop=1;jettySize=auto;html=1;entryX=0.75;entryY=0;entryDx=0;entryDy=0;endArrow=none;endFill=0;" edge="1" parent="1" source="196" target="205"><mxGeometry relative="1" as="geometry"><Array as="points"><mxPoint x="1205" y="270"/><mxPoint x="1205" y="270"/></Array></mxGeometry></mxCell><mxCell id="212" value="1:1&lt;br&gt;Has a" style="edgeLabel;html=1;align=center;verticalAlign=middle;resizable=0;points=[];" vertex="1" connectable="0" parent="206"><mxGeometry x="-0.1116" relative="1" as="geometry"><mxPoint as="offset"/></mxGeometry></mxCell><mxCell id="209" style="edgeStyle=orthogonalEdgeStyle;rounded=0;orthogonalLoop=1;jettySize=auto;html=1;exitX=0.25;exitY=1;exitDx=0;exitDy=0;entryX=1;entryY=0.5;entryDx=0;entryDy=0;endArrow=none;endFill=0;" edge="1" parent="1" source="196" target="197"><mxGeometry relative="1" as="geometry"><Array as="points"><mxPoint x="1125" y="350"/></Array></mxGeometry></mxCell><mxCell id="211" value="1:1&lt;br&gt;Has a" style="edgeLabel;html=1;align=center;verticalAlign=middle;resizable=0;points=[];" vertex="1" connectable="0" parent="209"><mxGeometry x="0.2908" y="2" relative="1" as="geometry"><mxPoint x="21" as="offset"/></mxGeometry></mxCell><mxCell id="196" value="RegisterService" style="rounded=0;whiteSpace=wrap;html=1;" vertex="1" parent="1"><mxGeometry x="1085" y="160" width="160" height="80" as="geometry"/></mxCell><mxCell id="197" value="AccountRepository" style="rounded=0;whiteSpace=wrap;html=1;" vertex="1" parent="1"><mxGeometry x="845" y="310" width="160" height="80" as="geometry"/></mxCell><mxCell id="205" value="AccountMapper" style="rounded=0;whiteSpace=wrap;html=1;" vertex="1" parent="1"><mxGeometry x="1085" y="440" width="160" height="80" as="geometry"/></mxCell><mxCell id="216" style="edgeStyle=orthogonalEdgeStyle;rounded=0;orthogonalLoop=1;jettySize=auto;html=1;endArrow=none;endFill=0;" edge="1" parent="1" source="214" target="205"><mxGeometry relative="1" as="geometry"/></mxCell><mxCell id="217" value="1:MC&lt;br&gt;Has a" style="edgeLabel;html=1;align=center;verticalAlign=middle;resizable=0;points=[];" vertex="1" connectable="0" parent="216"><mxGeometry x="0.2241" y="-2" relative="1" as="geometry"><mxPoint as="offset"/></mxGeometry></mxCell><mxCell id="214" value="AccountDTO" style="rounded=0;whiteSpace=wrap;html=1;" vertex="1" parent="1"><mxGeometry x="1085" y="590" width="160" height="80" as="geometry"/></mxCell><mxCell id="218" style="edgeStyle=orthogonalEdgeStyle;rounded=0;orthogonalLoop=1;jettySize=auto;html=1;endArrow=none;endFill=0;" edge="1" parent="1" source="215" target="197"><mxGeometry relative="1" as="geometry"/></mxCell><mxCell id="220" value="MC:1&lt;br&gt;Is part of" style="edgeLabel;html=1;align=center;verticalAlign=middle;resizable=0;points=[];" vertex="1" connectable="0" parent="218"><mxGeometry x="0.3198" y="1" relative="1" as="geometry"><mxPoint x="1" y="13" as="offset"/></mxGeometry></mxCell><mxCell id="219" style="edgeStyle=orthogonalEdgeStyle;rounded=0;orthogonalLoop=1;jettySize=auto;html=1;endArrow=none;endFill=0;" edge="1" parent="1" source="215" target="205"><mxGeometry relative="1" as="geometry"/></mxCell><mxCell id="222" value="1:MC&lt;br&gt;Has a" style="edgeLabel;html=1;align=center;verticalAlign=middle;resizable=0;points=[];" vertex="1" connectable="0" parent="219"><mxGeometry x="-0.2531" y="1" relative="1" as="geometry"><mxPoint x="10" y="1" as="offset"/></mxGeometry></mxCell><mxCell id="215" value="Account" style="rounded=0;whiteSpace=wrap;html=1;" vertex="1" parent="1"><mxGeometry x="845" y="440" width="160" height="80" as="geometry"/></mxCell><mxCell id="223" value="QuestionController" style="rounded=0;whiteSpace=wrap;html=1;" vertex="1" parent="1"><mxGeometry x="1565" width="160" height="80" as="geometry"/></mxCell><mxCell id="224" style="edgeStyle=orthogonalEdgeStyle;rounded=0;orthogonalLoop=1;jettySize=auto;html=1;entryX=0.5;entryY=1;entryDx=0;entryDy=0;endArrow=none;endFill=0;" edge="1" parent="1" source="230" target="223"><mxGeometry relative="1" as="geometry"/></mxCell><mxCell id="225" value="1:1&lt;br&gt;Has a" style="edgeLabel;html=1;align=center;verticalAlign=middle;resizable=0;points=[];" vertex="1" connectable="0" parent="224"><mxGeometry x="-0.0953" y="2" relative="1" as="geometry"><mxPoint as="offset"/></mxGeometry></mxCell><mxCell id="228" style="edgeStyle=orthogonalEdgeStyle;rounded=0;orthogonalLoop=1;jettySize=auto;html=1;exitX=0;exitY=0.5;exitDx=0;exitDy=0;entryX=1;entryY=0.5;entryDx=0;entryDy=0;endArrow=none;endFill=0;" edge="1" parent="1" source="230" target="238"><mxGeometry relative="1" as="geometry"/></mxCell><mxCell id="229" value="1:1&lt;br&gt;Has a" style="edgeLabel;html=1;align=center;verticalAlign=middle;resizable=0;points=[];" vertex="1" connectable="0" parent="228"><mxGeometry x="-0.1443" relative="1" as="geometry"><mxPoint as="offset"/></mxGeometry></mxCell><mxCell id="248" style="edgeStyle=orthogonalEdgeStyle;rounded=0;orthogonalLoop=1;jettySize=auto;html=1;endArrow=none;endFill=0;" edge="1" parent="1" source="230" target="239"><mxGeometry relative="1" as="geometry"/></mxCell><mxCell id="230" value="QuestionService" style="rounded=0;whiteSpace=wrap;html=1;" vertex="1" parent="1"><mxGeometry x="1565" y="160" width="160" height="80" as="geometry"/></mxCell><mxCell id="238" value="QuestionRepository" style="rounded=0;whiteSpace=wrap;html=1;" vertex="1" parent="1"><mxGeometry x="1325" y="160" width="160" height="80" as="geometry"/></mxCell><mxCell id="239" value="QuestionMapper" style="rounded=0;whiteSpace=wrap;html=1;" vertex="1" parent="1"><mxGeometry x="1565" y="320" width="160" height="80" as="geometry"/></mxCell><mxCell id="240" style="edgeStyle=orthogonalEdgeStyle;rounded=0;orthogonalLoop=1;jettySize=auto;html=1;endArrow=none;endFill=0;" edge="1" parent="1" source="242" target="239"><mxGeometry relative="1" as="geometry"/></mxCell><mxCell id="241" value="1:MC&lt;br&gt;Has a" style="edgeLabel;html=1;align=center;verticalAlign=middle;resizable=0;points=[];" vertex="1" connectable="0" parent="240"><mxGeometry x="0.2241" y="-2" relative="1" as="geometry"><mxPoint as="offset"/></mxGeometry></mxCell><mxCell id="242" value="QuestionDTO" style="rounded=0;whiteSpace=wrap;html=1;" vertex="1" parent="1"><mxGeometry x="1805" y="320" width="160" height="80" as="geometry"/></mxCell><mxCell id="243" style="edgeStyle=orthogonalEdgeStyle;rounded=0;orthogonalLoop=1;jettySize=auto;html=1;endArrow=none;endFill=0;" edge="1" parent="1" source="247" target="238"><mxGeometry relative="1" as="geometry"/></mxCell><mxCell id="244" value="MC:1&lt;br&gt;Is part of" style="edgeLabel;html=1;align=center;verticalAlign=middle;resizable=0;points=[];" vertex="1" connectable="0" parent="243"><mxGeometry x="0.3198" y="1" relative="1" as="geometry"><mxPoint x="1" y="13" as="offset"/></mxGeometry></mxCell><mxCell id="245" style="edgeStyle=orthogonalEdgeStyle;rounded=0;orthogonalLoop=1;jettySize=auto;html=1;endArrow=none;endFill=0;" edge="1" parent="1" source="247" target="239"><mxGeometry relative="1" as="geometry"/></mxCell><mxCell id="246" value="1:MC&lt;br&gt;Has a" style="edgeLabel;html=1;align=center;verticalAlign=middle;resizable=0;points=[];" vertex="1" connectable="0" parent="245"><mxGeometry x="-0.2531" y="1" relative="1" as="geometry"><mxPoint x="10" y="1" as="offset"/></mxGeometry></mxCell><mxCell id="283" style="edgeStyle=orthogonalEdgeStyle;rounded=0;orthogonalLoop=1;jettySize=auto;html=1;exitX=0.25;exitY=1;exitDx=0;exitDy=0;entryX=0.75;entryY=1;entryDx=0;entryDy=0;endArrow=none;endFill=0;" edge="1" parent="1" source="247" target="215"><mxGeometry relative="1" as="geometry"><Array as="points"><mxPoint x="1365" y="720"/><mxPoint x="965" y="720"/></Array></mxGeometry></mxCell><mxCell id="284" value="1 : MC&lt;br&gt;is part of" style="edgeLabel;html=1;align=center;verticalAlign=middle;resizable=0;points=[];" vertex="1" connectable="0" parent="283"><mxGeometry x="0.2351" relative="1" as="geometry"><mxPoint as="offset"/></mxGeometry></mxCell><mxCell id="247" value="Question" style="rounded=0;whiteSpace=wrap;html=1;" vertex="1" parent="1"><mxGeometry x="1325" y="320" width="160" height="80" as="geometry"/></mxCell><mxCell id="249" value="CommentController" style="rounded=0;whiteSpace=wrap;html=1;" vertex="1" parent="1"><mxGeometry x="2285" width="160" height="80" as="geometry"/></mxCell><mxCell id="250" style="edgeStyle=orthogonalEdgeStyle;rounded=0;orthogonalLoop=1;jettySize=auto;html=1;entryX=0.5;entryY=1;entryDx=0;entryDy=0;endArrow=none;endFill=0;" edge="1" parent="1" source="255" target="249"><mxGeometry relative="1" as="geometry"/></mxCell><mxCell id="251" value="1:1&lt;br&gt;Has a" style="edgeLabel;html=1;align=center;verticalAlign=middle;resizable=0;points=[];" vertex="1" connectable="0" parent="250"><mxGeometry x="-0.0953" y="2" relative="1" as="geometry"><mxPoint as="offset"/></mxGeometry></mxCell><mxCell id="252" style="edgeStyle=orthogonalEdgeStyle;rounded=0;orthogonalLoop=1;jettySize=auto;html=1;exitX=0;exitY=0.5;exitDx=0;exitDy=0;entryX=1;entryY=0.5;entryDx=0;entryDy=0;endArrow=none;endFill=0;" edge="1" parent="1" source="255" target="256"><mxGeometry relative="1" as="geometry"/></mxCell><mxCell id="253" value="1:1&lt;br&gt;Has a" style="edgeLabel;html=1;align=center;verticalAlign=middle;resizable=0;points=[];" vertex="1" connectable="0" parent="252"><mxGeometry x="-0.1443" relative="1" as="geometry"><mxPoint as="offset"/></mxGeometry></mxCell><mxCell id="254" style="edgeStyle=orthogonalEdgeStyle;rounded=0;orthogonalLoop=1;jettySize=auto;html=1;endArrow=none;endFill=0;" edge="1" parent="1" source="255" target="257"><mxGeometry relative="1" as="geometry"/></mxCell><mxCell id="255" value="CommentService" style="rounded=0;whiteSpace=wrap;html=1;" vertex="1" parent="1"><mxGeometry x="2285" y="160" width="160" height="80" as="geometry"/></mxCell><mxCell id="256" value="CommentRepository" style="rounded=0;whiteSpace=wrap;html=1;" vertex="1" parent="1"><mxGeometry x="2045" y="160" width="160" height="80" as="geometry"/></mxCell><mxCell id="257" value="CommentMapper" style="rounded=0;whiteSpace=wrap;html=1;" vertex="1" parent="1"><mxGeometry x="2285" y="320" width="160" height="80" as="geometry"/></mxCell><mxCell id="258" style="edgeStyle=orthogonalEdgeStyle;rounded=0;orthogonalLoop=1;jettySize=auto;html=1;endArrow=none;endFill=0;" edge="1" parent="1" source="260" target="257"><mxGeometry relative="1" as="geometry"/></mxCell><mxCell id="259" value="1:MC&lt;br&gt;Has a" style="edgeLabel;html=1;align=center;verticalAlign=middle;resizable=0;points=[];" vertex="1" connectable="0" parent="258"><mxGeometry x="0.2241" y="-2" relative="1" as="geometry"><mxPoint as="offset"/></mxGeometry></mxCell><mxCell id="260" value="CommentDTO" style="rounded=0;whiteSpace=wrap;html=1;" vertex="1" parent="1"><mxGeometry x="2525" y="320" width="160" height="80" as="geometry"/></mxCell><mxCell id="261" style="edgeStyle=orthogonalEdgeStyle;rounded=0;orthogonalLoop=1;jettySize=auto;html=1;endArrow=none;endFill=0;" edge="1" parent="1" source="265" target="256"><mxGeometry relative="1" as="geometry"/></mxCell><mxCell id="262" value="MC:1&lt;br&gt;Is part of" style="edgeLabel;html=1;align=center;verticalAlign=middle;resizable=0;points=[];" vertex="1" connectable="0" parent="261"><mxGeometry x="0.3198" y="1" relative="1" as="geometry"><mxPoint x="1" y="13" as="offset"/></mxGeometry></mxCell><mxCell id="263" style="edgeStyle=orthogonalEdgeStyle;rounded=0;orthogonalLoop=1;jettySize=auto;html=1;endArrow=none;endFill=0;" edge="1" parent="1" source="265" target="257"><mxGeometry relative="1" as="geometry"/></mxCell><mxCell id="264" value="1:MC&lt;br&gt;Has a" style="edgeLabel;html=1;align=center;verticalAlign=middle;resizable=0;points=[];" vertex="1" connectable="0" parent="263"><mxGeometry x="-0.2531" y="1" relative="1" as="geometry"><mxPoint x="10" y="1" as="offset"/></mxGeometry></mxCell><mxCell id="290" style="edgeStyle=orthogonalEdgeStyle;rounded=0;orthogonalLoop=1;jettySize=auto;html=1;exitX=0.5;exitY=1;exitDx=0;exitDy=0;entryX=0.5;entryY=1;entryDx=0;entryDy=0;endArrow=none;endFill=0;" edge="1" parent="1" source="265" target="215"><mxGeometry relative="1" as="geometry"><Array as="points"><mxPoint x="2125" y="760"/><mxPoint x="925" y="760"/></Array></mxGeometry></mxCell><mxCell id="291" value="Text" style="edgeLabel;html=1;align=center;verticalAlign=middle;resizable=0;points=[];" vertex="1" connectable="0" parent="290"><mxGeometry x="0.1298" y="-2" relative="1" as="geometry"><mxPoint as="offset"/></mxGeometry></mxCell><mxCell id="292" value="1 : MC&lt;br&gt;is part of" style="edgeLabel;html=1;align=center;verticalAlign=middle;resizable=0;points=[];" vertex="1" connectable="0" parent="290"><mxGeometry x="0.1429" y="-3" relative="1" as="geometry"><mxPoint as="offset"/></mxGeometry></mxCell><mxCell id="265" value="Comment" style="rounded=0;whiteSpace=wrap;html=1;" vertex="1" parent="1"><mxGeometry x="2045" y="320" width="160" height="80" as="geometry"/></mxCell><mxCell id="266" value="ThreadController" style="rounded=0;whiteSpace=wrap;html=1;" vertex="1" parent="1"><mxGeometry x="3005" width="160" height="80" as="geometry"/></mxCell><mxCell id="267" style="edgeStyle=orthogonalEdgeStyle;rounded=0;orthogonalLoop=1;jettySize=auto;html=1;entryX=0.5;entryY=1;entryDx=0;entryDy=0;endArrow=none;endFill=0;" edge="1" parent="1" source="272" target="266"><mxGeometry relative="1" as="geometry"/></mxCell><mxCell id="268" value="1:1&lt;br&gt;Has a" style="edgeLabel;html=1;align=center;verticalAlign=middle;resizable=0;points=[];" vertex="1" connectable="0" parent="267"><mxGeometry x="-0.0953" y="2" relative="1" as="geometry"><mxPoint as="offset"/></mxGeometry></mxCell><mxCell id="269" style="edgeStyle=orthogonalEdgeStyle;rounded=0;orthogonalLoop=1;jettySize=auto;html=1;exitX=0;exitY=0.5;exitDx=0;exitDy=0;entryX=1;entryY=0.5;entryDx=0;entryDy=0;endArrow=none;endFill=0;" edge="1" parent="1" source="272" target="273"><mxGeometry relative="1" as="geometry"/></mxCell><mxCell id="270" value="1:1&lt;br&gt;Has a" style="edgeLabel;html=1;align=center;verticalAlign=middle;resizable=0;points=[];" vertex="1" connectable="0" parent="269"><mxGeometry x="-0.1443" relative="1" as="geometry"><mxPoint as="offset"/></mxGeometry></mxCell><mxCell id="271" style="edgeStyle=orthogonalEdgeStyle;rounded=0;orthogonalLoop=1;jettySize=auto;html=1;endArrow=none;endFill=0;" edge="1" parent="1" source="272" target="274"><mxGeometry relative="1" as="geometry"/></mxCell><mxCell id="272" value="ThreadService" style="rounded=0;whiteSpace=wrap;html=1;" vertex="1" parent="1"><mxGeometry x="3005" y="160" width="160" height="80" as="geometry"/></mxCell><mxCell id="273" value="ThreadRepository" style="rounded=0;whiteSpace=wrap;html=1;" vertex="1" parent="1"><mxGeometry x="2765" y="160" width="160" height="80" as="geometry"/></mxCell><mxCell id="274" value="ThreadMapper" style="rounded=0;whiteSpace=wrap;html=1;" vertex="1" parent="1"><mxGeometry x="3005" y="320" width="160" height="80" as="geometry"/></mxCell><mxCell id="275" style="edgeStyle=orthogonalEdgeStyle;rounded=0;orthogonalLoop=1;jettySize=auto;html=1;endArrow=none;endFill=0;" edge="1" parent="1" source="277" target="274"><mxGeometry relative="1" as="geometry"/></mxCell><mxCell id="276" value="1:MC&lt;br&gt;Has a" style="edgeLabel;html=1;align=center;verticalAlign=middle;resizable=0;points=[];" vertex="1" connectable="0" parent="275"><mxGeometry x="0.2241" y="-2" relative="1" as="geometry"><mxPoint as="offset"/></mxGeometry></mxCell><mxCell id="277" value="ThreadDTO" style="rounded=0;whiteSpace=wrap;html=1;" vertex="1" parent="1"><mxGeometry x="3245" y="320" width="160" height="80" as="geometry"/></mxCell><mxCell id="278" style="edgeStyle=orthogonalEdgeStyle;rounded=0;orthogonalLoop=1;jettySize=auto;html=1;endArrow=none;endFill=0;" edge="1" parent="1" source="282" target="273"><mxGeometry relative="1" as="geometry"/></mxCell><mxCell id="279" value="MC:1&lt;br&gt;Is part of" style="edgeLabel;html=1;align=center;verticalAlign=middle;resizable=0;points=[];" vertex="1" connectable="0" parent="278"><mxGeometry x="0.3198" y="1" relative="1" as="geometry"><mxPoint x="1" y="13" as="offset"/></mxGeometry></mxCell><mxCell id="280" style="edgeStyle=orthogonalEdgeStyle;rounded=0;orthogonalLoop=1;jettySize=auto;html=1;endArrow=none;endFill=0;" edge="1" parent="1" source="282" target="274"><mxGeometry relative="1" as="geometry"/></mxCell><mxCell id="281" value="1:MC&lt;br&gt;Has a" style="edgeLabel;html=1;align=center;verticalAlign=middle;resizable=0;points=[];" vertex="1" connectable="0" parent="280"><mxGeometry x="-0.2531" y="1" relative="1" as="geometry"><mxPoint x="10" y="1" as="offset"/></mxGeometry></mxCell><mxCell id="289" style="edgeStyle=orthogonalEdgeStyle;rounded=0;orthogonalLoop=1;jettySize=auto;html=1;exitX=0.75;exitY=1;exitDx=0;exitDy=0;endArrow=none;endFill=0;entryX=0.25;entryY=1;entryDx=0;entryDy=0;" edge="1" parent="1" source="282" target="215"><mxGeometry relative="1" as="geometry"><mxPoint x="2865" y="680" as="targetPoint"/><Array as="points"><mxPoint x="2885" y="800"/><mxPoint x="885" y="800"/></Array></mxGeometry></mxCell><mxCell id="293" value="1 : MC&lt;br&gt;is part of" style="edgeLabel;html=1;align=center;verticalAlign=middle;resizable=0;points=[];" vertex="1" connectable="0" parent="289"><mxGeometry x="-0.1771" y="-1" relative="1" as="geometry"><mxPoint x="-326" y="1" as="offset"/></mxGeometry></mxCell><mxCell id="282" value="Thread" style="rounded=0;whiteSpace=wrap;html=1;" vertex="1" parent="1"><mxGeometry x="2765" y="320" width="160" height="80" as="geometry"/></mxCell><mxCell id="285" style="edgeStyle=orthogonalEdgeStyle;rounded=0;orthogonalLoop=1;jettySize=auto;html=1;exitX=0.25;exitY=1;exitDx=0;exitDy=0;entryX=0.75;entryY=1;entryDx=0;entryDy=0;endArrow=none;endFill=0;" edge="1" parent="1" source="265" target="247"><mxGeometry relative="1" as="geometry"><mxPoint x="1855" y="460" as="sourcePoint"/><mxPoint x="1455" y="580" as="targetPoint"/><Array as="points"><mxPoint x="2085" y="440"/><mxPoint x="1445" y="440"/></Array></mxGeometry></mxCell><mxCell id="286" value="1 : MC&lt;br&gt;is part of" style="edgeLabel;html=1;align=center;verticalAlign=middle;resizable=0;points=[];" vertex="1" connectable="0" parent="285"><mxGeometry x="0.2351" relative="1" as="geometry"><mxPoint x="65" as="offset"/></mxGeometry></mxCell><mxCell id="287" style="edgeStyle=orthogonalEdgeStyle;rounded=0;orthogonalLoop=1;jettySize=auto;html=1;exitX=0.25;exitY=1;exitDx=0;exitDy=0;entryX=0.75;entryY=1;entryDx=0;entryDy=0;endArrow=none;endFill=0;" edge="1" parent="1" source="282" target="265"><mxGeometry relative="1" as="geometry"><mxPoint x="2825" y="410" as="sourcePoint"/><mxPoint x="2185" y="410" as="targetPoint"/><Array as="points"><mxPoint x="2805" y="440"/><mxPoint x="2165" y="440"/></Array></mxGeometry></mxCell><mxCell id="288" value="1 : MC&lt;br&gt;is part of" style="edgeLabel;html=1;align=center;verticalAlign=middle;resizable=0;points=[];" vertex="1" connectable="0" parent="287"><mxGeometry x="0.2351" relative="1" as="geometry"><mxPoint x="65" as="offset"/></mxGeometry></mxCell><mxCell id="301" style="edgeStyle=orthogonalEdgeStyle;rounded=0;orthogonalLoop=1;jettySize=auto;html=1;endArrow=none;endFill=0;" edge="1" parent="1" source="302" target="298"><mxGeometry relative="1" as="geometry"><mxPoint x="1925" y="-300" as="sourcePoint"/></mxGeometry></mxCell><mxCell id="300" style="edgeStyle=orthogonalEdgeStyle;rounded=0;orthogonalLoop=1;jettySize=auto;html=1;endArrow=none;endFill=0;" edge="1" parent="1" source="298" target="299"><mxGeometry relative="1" as="geometry"/></mxCell><mxCell id="298" value="Main just starts the TomCat and creates all the associations" style="rounded=1;whiteSpace=wrap;html=1;fontStyle=0;startSize=30;" vertex="1" parent="1"><mxGeometry x="1965" y="-350" width="120" height="60" as="geometry"/></mxCell><mxCell id="303" style="edgeStyle=orthogonalEdgeStyle;rounded=0;orthogonalLoop=1;jettySize=auto;html=1;entryX=0.5;entryY=0;entryDx=0;entryDy=0;endArrow=none;endFill=0;" edge="1" parent="1" source="299" target="194"><mxGeometry relative="1" as="geometry"/></mxCell><mxCell id="304" style="edgeStyle=orthogonalEdgeStyle;rounded=0;orthogonalLoop=1;jettySize=auto;html=1;entryX=0.5;entryY=0;entryDx=0;entryDy=0;endArrow=none;endFill=0;" edge="1" parent="1" source="299" target="223"><mxGeometry relative="1" as="geometry"/></mxCell><mxCell id="305" style="edgeStyle=orthogonalEdgeStyle;rounded=0;orthogonalLoop=1;jettySize=auto;html=1;entryX=0.5;entryY=0;entryDx=0;entryDy=0;endArrow=none;endFill=0;" edge="1" parent="1" source="299" target="249"><mxGeometry relative="1" as="geometry"/></mxCell><mxCell id="306" style="edgeStyle=orthogonalEdgeStyle;rounded=0;orthogonalLoop=1;jettySize=auto;html=1;entryX=0.5;entryY=0;entryDx=0;entryDy=0;endArrow=none;endFill=0;" edge="1" parent="1" source="299" target="266"><mxGeometry relative="1" as="geometry"/></mxCell><mxCell id="299" value="The user/app can access any publicly available information of the API via the Controllers" style="rounded=0;whiteSpace=wrap;html=1;" vertex="1" parent="1"><mxGeometry x="1925" y="-210" width="200" height="90" as="geometry"/></mxCell><mxCell id="302" value="AuoraApplication" style="rounded=0;whiteSpace=wrap;html=1;" vertex="1" parent="1"><mxGeometry x="1725" y="-360" width="200" height="80" as="geometry"/></mxCell><mxCell id="312" style="edgeStyle=orthogonalEdgeStyle;rounded=0;orthogonalLoop=1;jettySize=auto;html=1;entryX=0;entryY=0.5;entryDx=0;entryDy=0;endArrow=none;endFill=0;" edge="1" parent="1" source="310" target="311"><mxGeometry relative="1" as="geometry"><Array as="points"/></mxGeometry></mxCell><mxCell id="313" value="1 : 1&lt;br&gt;Every Controller&lt;br&gt;has this service&lt;br&gt;to validate every&lt;br&gt;request, but the&lt;br&gt;registration" style="edgeLabel;html=1;align=center;verticalAlign=middle;resizable=0;points=[];" vertex="1" connectable="0" parent="312"><mxGeometry x="0.2579" y="2" relative="1" as="geometry"><mxPoint x="-21" y="2" as="offset"/></mxGeometry></mxCell><mxCell id="310" value="PasswordValidationService" style="rounded=0;whiteSpace=wrap;html=1;" vertex="1" parent="1"><mxGeometry x="320" width="160" height="80" as="geometry"/></mxCell><mxCell id="311" value="&lt;h1&gt;Web Layer&lt;/h1&gt;&lt;p&gt;API-Access Layer&lt;/p&gt;" style="text;html=1;strokeColor=none;fillColor=none;spacing=5;spacingTop=-20;whiteSpace=wrap;overflow=hidden;rounded=0;" vertex="1" parent="1"><mxGeometry x="640" width="160" height="80" as="geometry"/></mxCell><mxCell id="314" value="&lt;h1&gt;Logic Layer&lt;/h1&gt;&lt;p&gt;Connects database &amp;lt;=&amp;gt; API&lt;/p&gt;" style="text;html=1;strokeColor=none;fillColor=none;spacing=5;spacingTop=-20;whiteSpace=wrap;overflow=hidden;rounded=0;" vertex="1" parent="1"><mxGeometry x="640" y="160" width="160" height="80" as="geometry"/></mxCell><mxCell id="317" style="edgeStyle=orthogonalEdgeStyle;rounded=0;orthogonalLoop=1;jettySize=auto;html=1;endArrow=none;endFill=0;" edge="1" parent="1" source="316" target="314"><mxGeometry relative="1" as="geometry"/></mxCell><mxCell id="318" value="1 : 1&lt;br&gt;Every Logic&lt;br&gt;component has&lt;br&gt;this service to&lt;br&gt;safely rollback&lt;br&gt;any DB-request" style="edgeLabel;html=1;align=center;verticalAlign=middle;resizable=0;points=[];" vertex="1" connectable="0" parent="317"><mxGeometry x="-0.2375" y="2" relative="1" as="geometry"><mxPoint x="19" y="2" as="offset"/></mxGeometry></mxCell><mxCell id="316" value="TransactionService" style="rounded=0;whiteSpace=wrap;html=1;" vertex="1" parent="1"><mxGeometry x="320" y="160" width="160" height="80" as="geometry"/></mxCell><mxCell id="319" value="&lt;h1&gt;Entity Layer&lt;/h1&gt;&lt;p&gt;Representation of Database&lt;/p&gt;" style="text;html=1;strokeColor=none;fillColor=none;spacing=5;spacingTop=-20;whiteSpace=wrap;overflow=hidden;rounded=0;" vertex="1" parent="1"><mxGeometry x="640" y="440" width="160" height="80" as="geometry"/></mxCell><mxCell id="320" value="&lt;h1&gt;ServiceLayer&lt;/h1&gt;&lt;p&gt;Extra services needed for communication (e.g. DB)&lt;/p&gt;" style="text;html=1;strokeColor=none;fillColor=none;spacing=5;spacingTop=-20;whiteSpace=wrap;overflow=hidden;rounded=0;" vertex="1" parent="1"><mxGeometry x="640" y="320" width="160" height="80" as="geometry"/></mxCell></root></mxGraphModel></diagram></mxfile>